<svg width="24" height="24" viewBox="0 0 24 24" fill="white">
<path d="M 17.984375 2.9863281 A 1.0001 1.0001 0 0 0 17 4 L 17 17 L 15.183594 17 C 14.615594 17 14.331375 17.686844 14.734375 18.089844 L 17.392578 20.748047 C 17.728578 21.084047 18.273375 21.084047 18.609375 20.748047 L 21.267578 18.089844 C 21.669578 17.686844 21.383453 17 20.814453 17 L 19 17 L 19 4 A 1.0001 1.0001 0 0 0 17.984375 2.9863281 z M 4 3 A 1.0001 1.0001 0 1 0 4 5 L 5 5 A 1.0001 1.0001 0 1 0 5 3 L 4 3 z M 4 7 A 1.0001 1.0001 0 1 0 4 9 L 7 9 A 1.0001 1.0001 0 1 0 7 7 L 4 7 z M 4 11 A 1.0001 1.0001 0 1 0 4 13 L 9 13 A 1.0001 1.0001 0 1 0 9 11 L 4 11 z M 4 15 A 1.0001 1.0001 0 1 0 4 17 L 11 17 A 1.0001 1.0001 0 1 0 11 15 L 4 15 z M 4 19 A 1.0001 1.0001 0 1 0 4 21 L 13 21 A 1.0001 1.0001 0 1 0 13 19 L 4 19 z">
</path></svg>