<svg width="24" height="24" viewBox="0 0 48 48" fill="white">
<path d="M 33.478516 6 A 1.50015 1.50015 0 0 0 32.439453 6.4394531 L 25.439453 13.439453 A 1.50015 1.50015 0 1 0 27.560547 15.560547 L 32 11.121094 L 32 33 A 1.50015 1.50015 0 1 0 35 33 L 35 11.121094 L 39.439453 15.560547 A 1.50015 1.50015 0 1 0 41.560547 13.439453 L 34.560547 6.4394531 A 1.50015 1.50015 0 0 0 33.478516 6 z M 7.5 7 A 1.50015 1.50015 0 1 0 7.5 10 L 10.5 10 A 1.50015 1.50015 0 1 0 10.5 7 L 7.5 7 z M 7.5 15 A 1.50015 1.50015 0 1 0 7.5 18 L 14.5 18 A 1.50015 1.50015 0 1 0 14.5 15 L 7.5 15 z M 7.5 23 A 1.50015 1.50015 0 1 0 7.5 26 L 18.5 26 A 1.50015 1.50015 0 1 0 18.5 23 L 7.5 23 z M 7.5 31 A 1.50015 1.50015 0 1 0 7.5 34 L 22.5 34 A 1.50015 1.50015 0 1 0 22.5 31 L 7.5 31 z M 7.5 39 A 1.50015 1.50015 0 1 0 7.5 42 L 26.5 42 A 1.50015 1.50015 0 1 0 26.5 39 L 7.5 39 z">
</path></svg>